/* XPM */
static char * bitcoin16_xpm[] = {
"16 16 63 1",
" 	c None",
".	c #A08E81",
"+	c #AF998A",
"@	c #917F74",
"#	c #9D8A7C",
"$	c #877970",
"%	c #7C6F66",
"&	c #918076",
"*	c #71645C",
"=	c #6D625A",
"-	c #7A6C64",
";	c #9C8A80",
">	c #6D625D",
",	c #85766C",
"'	c #9E8A7C",
")	c #A8917F",
"!	c #6D6361",
"~	c #E1CCC7",
"{	c #A49186",
"]	c #191919",
"^	c #958A84",
"/	c #9F8E87",
"(	c #A19188",
"_	c #A5958E",
":	c #9B8777",
"<	c #AB9582",
"[	c #6E6762",
"}	c #4F4A48",
"|	c #4D4948",
"1	c #776C65",
"2	c #9B887A",
"3	c #A28D80",
"4	c #938175",
"5	c #AC9B97",
"6	c #FDEDE5",
"7	c #928072",
"8	c #AC9688",
"9	c #786B65",
"0	c #554C47",
"a	c #726864",
"b	c #A09083",
"c	c #70655F",
"d	c #998678",
"e	c #BFACA9",
"f	c #A38E7F",
"g	c #807268",
"h	c #6E635B",
"i	c #978474",
"j	c #796C64",
"k	c #6F645E",
"l	c #776A62",
"m	c #8D7E76",
"n	c #817269",
"o	c #91837A",
"p	c #60574F",
"q	c #79736F",
"r	c #B19C8E",
"s	c #84756A",
"t	c #685E57",
"u	c #A5948E",
"v	c #FBFAF9",
"w	c #6C625D",
"x	c #FAF9F9",
"                ",
"       .+       ",
"      @#$%      ",
"      &*=-      ",
"     ;    >     ",
"    ,  ')  !    ",
"  ~{  ]]]]  ^/  ",
" (_: <][}|1 234 ",
" 567 8]90]a bcd ",
"  ef  ]]]]  gh  ",
"    i  jk  l    ",
"     m    n     ",
"      opqr      ",
"      stuv      ",
"       wx       ",
"                "};
