/* XPM */
static char * bitcoin32_xpm[] = {
"32 32 253 2",
"  	c None",
". 	c #9A897C",
"+ 	c #8E7D72",
"@ 	c #7A6F69",
"# 	c #7B6E68",
"$ 	c #8E7E76",
"% 	c #AD988C",
"& 	c #85766C",
"* 	c #8A7B70",
"= 	c #887A70",
"- 	c #80746C",
"; 	c #756B67",
"> 	c #86776F",
", 	c #948276",
"' 	c #A79282",
") 	c #AF9889",
"! 	c #AA9587",
"~ 	c #9D8A7D",
"{ 	c #88786E",
"] 	c #6B615C",
"^ 	c #796C64",
"/ 	c #9B897E",
"( 	c #A08C7D",
"_ 	c #A69182",
": 	c #9F8B7E",
"< 	c #988579",
"[ 	c #8C7B71",
"} 	c #766A62",
"| 	c #776A60",
"1 	c #847770",
"2 	c #7E7068",
"3 	c #554D47",
"4 	c #514A44",
"5 	c #7A6C63",
"6 	c #796C62",
"7 	c #7F7064",
"8 	c #AD9C99",
"9 	c #817269",
"0 	c #72665F",
"a 	c #675E54",
"b 	c #8B786A",
"c 	c #6A5E56",
"d 	c #77695E",
"e 	c #A99382",
"f 	c #7F6F62",
"g 	c #AC9786",
"h 	c #A58E7D",
"i 	c #796A5E",
"j 	c #7A6D63",
"k 	c #857467",
"l 	c #796E65",
"m 	c #99897F",
"n 	c #796E6A",
"o 	c #70635A",
"p 	c #9B8A7D",
"q 	c #A08B7F",
"r 	c #A68F7F",
"s 	c #A68F7E",
"t 	c #70645B",
"u 	c #716762",
"v 	c #907F72",
"w 	c #88786C",
"x 	c #8E8075",
"y 	c #998678",
"z 	c #A48E7C",
"A 	c #A48D7C",
"B 	c #A18B7A",
"C 	c #6D6361",
"D 	c #8D7C6F",
"E 	c #FCF4F0",
"F 	c #D5C3BB",
"G 	c #584F49",
"H 	c #585554",
"I 	c #191919",
"J 	c #3E3631",
"K 	c #5F544D",
"L 	c #A69994",
"M 	c #A7958F",
"N 	c #C6B4AF",
"O 	c #C1AEA9",
"P 	c #A6948D",
"Q 	c #89796E",
"R 	c #938479",
"S 	c #171717",
"T 	c #74675F",
"U 	c #8F847E",
"V 	c #7F746F",
"W 	c #91827D",
"X 	c #99887F",
"Y 	c #A79791",
"Z 	c #A79690",
"` 	c #A0908A",
" .	c #8A7C76",
"..	c #9C8876",
"+.	c #A18E81",
"@.	c #AB9483",
"#.	c #181818",
"$.	c #837671",
"%.	c #796D69",
"&.	c #71675E",
"*.	c #6C625E",
"=.	c #69605E",
"-.	c #685F5E",
";.	c #6A615E",
">.	c #766B63",
",.	c #9E8A78",
"'.	c #7C6F69",
").	c #8B7C75",
"!.	c #988781",
"~.	c #A08E86",
"{.	c #AF9A8D",
"].	c #C0AAA1",
"^.	c #BAA7A1",
"/.	c #A3938D",
"(.	c #82756E",
"_.	c #8B7D75",
":.	c #9D897A",
"<.	c #B29B8C",
"[.	c #827772",
"}.	c #212121",
"|.	c #1A1A1A",
"1.	c #776B65",
"2.	c #81746A",
"3.	c #7B6E64",
"4.	c #A38D7E",
"5.	c #86766C",
"6.	c #6E635C",
"7.	c #6A605A",
"8.	c #6F645D",
"9.	c #97867D",
"0.	c #EFD6CE",
"a.	c #FCE9E1",
"b.	c #C6B1AB",
"c.	c #8F8077",
"d.	c #807169",
"e.	c #998679",
"f.	c #C0A899",
"g.	c #8D7F7B",
"h.	c #1D1D1D",
"i.	c #6C635B",
"j.	c #736862",
"k.	c #71655E",
"l.	c #908279",
"m.	c #675D54",
"n.	c #85766B",
"o.	c #978477",
"p.	c #827267",
"q.	c #CCBABA",
"r.	c #FFF3F2",
"s.	c #F7DDD3",
"t.	c #A49288",
"u.	c #958270",
"v.	c #938276",
"w.	c #B7A194",
"x.	c #9D8A7E",
"y.	c #928177",
"z.	c #2C2C2C",
"A.	c #7C6F67",
"B.	c #807269",
"C.	c #9C8977",
"D.	c #7A6D64",
"E.	c #675E55",
"F.	c #7E7167",
"G.	c #907E73",
"H.	c #7F7065",
"I.	c #D3C0C1",
"J.	c #E2C9C2",
"K.	c #BDA597",
"L.	c #917F73",
"M.	c #96857C",
"N.	c #282828",
"O.	c #1F1F1F",
"P.	c #8E7C6F",
"Q.	c #8A7A6E",
"R.	c #7B6D65",
"S.	c #685E57",
"T.	c #6D635C",
"U.	c #75675C",
"V.	c #AD9A92",
"W.	c #AA9486",
"X.	c #554C46",
"Y.	c #36302B",
"Z.	c #2A2623",
"`.	c #827368",
" +	c #7D6D62",
".+	c #6C5F55",
"++	c #968374",
"@+	c #7F726A",
"#+	c #736860",
"$+	c #6F645E",
"%+	c #6B605E",
"&+	c #665D55",
"*+	c #6C6257",
"=+	c #6C635A",
"-+	c #7B6B5F",
";+	c #9B8C81",
">+	c #A38D7D",
",+	c #70655F",
"'+	c #6D625B",
")+	c #70655E",
"!+	c #6B6058",
"~+	c #978476",
"{+	c #8F7D6F",
"]+	c #786A5E",
"^+	c #73675F",
"/+	c #B19D90",
"(+	c #847366",
"_+	c #726660",
":+	c #716660",
"<+	c #817163",
"[+	c #776B63",
"}+	c #716459",
"|+	c #70635B",
"1+	c #70645D",
"2+	c #7A6F68",
"3+	c #8B7A6D",
"4+	c #86766B",
"5+	c #958376",
"6+	c #6F6359",
"7+	c #88776B",
"8+	c #8C8078",
"9+	c #5A514A",
"0+	c #68605B",
"a+	c #8F7E74",
"b+	c #8F7E71",
"c+	c #9D8B7F",
"d+	c #6D635D",
"e+	c #786B61",
"f+	c #7F7470",
"g+	c #756A64",
"h+	c #C7B0A5",
"i+	c #B9A6A0",
"j+	c #9C8779",
"k+	c #766961",
"l+	c #665D53",
"m+	c #675E56",
"n+	c #6E6460",
"o+	c #AE9B95",
"p+	c #FFFCF9",
"q+	c #FAF6F6",
"r+	c #695D54",
"s+	c #786B64",
"t+	c #A9978F",
"u+	c #F9EAE5",
"v+	c #FBFAF9",
"w+	c #6B5F57",
"x+	c #87776C",
"y+	c #9C8A80",
"z+	c #FDF3EF",
"A+	c #FAF9F9",
"B+	c #7C6D61",
"C+	c #766C67",
"D+	c #DECBCB",
"                                                                ",
"                                                                ",
"                              . +                               ",
"                            @ # $ %                             ",
"                          & * = - ; >                           ",
"                        , ' ) ! ~ { ] ^                         ",
"                        / ( _ : < [ } |                         ",
"                    1     2 3     4 5     6                     ",
"                  7 8 9                 0 a b                   ",
"                c   d e f     g h     i j k   l                 ",
"              m n o         p q r s         t u v               ",
"                w h       x y z A A B       C D                 ",
"          E F     G     H I I I I I I J     K     L M           ",
"        N O P Q       R I I S S S S S S T       U V W X         ",
"      Y Z `  ...    +.@.I #.$.%.&.*.=.-.;.>.    ,.'.).!.~.      ",
"    {.].^./.(.    _.:.<.I #.[.}.|.|.|.|.1.2.3.    4.5.6.7.8.    ",
"    9.0.a.b.c.    d.e.f.I #.g.h.I I I I i.j.k.    l.m.} n.o.    ",
"    p.q.r.s.t.u.    v.w.I #.{.x.y.[ z.I A.B.    C.D.E.F.G.      ",
"      H.I.J.K.L.      M.I I N.N.N.N.O.I P.      Q.R.S.T.        ",
"        U.V.W.    X.    Y.I I I I I I Z.    G     `.5. +        ",
"          .+    l.++      @+#+$+%+&+*+      =+P.    -+          ",
"              ;+>+U.        A.,+'+)+        !+~+{+              ",
"                ]+  ^+/+(+    _+:+    <+[+}+  |+                ",
"                  1+2+3+                4+5+6+                  ",
"                    7+    8+9+    0+a+    b+                    ",
"                        c+'+d+e+f+g+h+i+                        ",
"                        j+k+l+m+n+o+p+q+                        ",
"                        r+9 ^ s+t+u+v+                          ",
"                          w+x+y+z+A+                            ",
"                            B+C+D+                              ",
"                                                                ",
"                                                                "};
